# xmcd CD database file
#
# Track frame offsets:
#	150
#	17196
#	36861
#	53958
#	72279
#	92505
#	113511
#	133360
#	152055
#	167366
#
# Disc length: 2445 seconds
#
# Revision: 0
# Processed by: cddbd v1.5.1PL2 Copyright (c) Steve Scherf et al.
# Submitted via: CDex 1.51
#
DISCID=7d098b0a
DTITLE=Marlena Shaw - Acting Up
DYEAR=1978
DGENRE=Jazz
TTITLE0=More
TTITLE1=Moonrise
TTITLE2=Rhythm Of Love
TTITLE3=Places
TTITLE4=I Wonder
TTITLE5=You Bring Out The Best In Me
TTITLE6=Dreamin'
TTITLE7=I'm Back For More
TTITLE8=Mamma Tried
TTITLE9=Theme From "Looking For Mr.Goodbar"(Don't Ask To Stay Until Tomorrow)
EXTD=YEAR: 1978
EXTT0=
EXTT1=
EXTT2=
EXTT3=
EXTT4=
EXTT5=
EXTT6=
EXTT7=
EXTT8=
EXTT9=
PLAYORDER=
